<svg width="120" height="120" viewBox="0 0 120 120" fill="none" xmlns="http://www.w3.org/2000/svg">
<path opacity="0.2" d="M60 120C93.1371 120 120 93.1371 120 60C120 26.8629 93.1371 0 60 0C26.8629 0 0 26.8629 0 60C0 93.1371 26.8629 120 60 120Z" fill="url(#paint0_linear)"/>
<g filter="url(#filter0_d)">
<path d="M109.414 81.587L100.549 26.1014C100.139 23.7211 97.1842 21.587 94.968 21.9154L14.2019 34.8839C11.9858 35.2122 9.85174 38.2491 10.1801 40.6294L16.0077 77.0727C16.0898 77.8114 16.5002 78.3039 17.0747 78.6322C22.0816 85.1164 39.3182 96.6076 45.8846 96.8538C46.0487 96.9359 46.1308 96.9359 46.295 96.9359L105.392 87.4967C108.019 87.0863 109.742 83.9673 109.414 81.587Z" fill="white"/>
</g>
<path d="M105.39 87.4967L46.7036 96.8538C43.7488 97.3463 40.7939 81.2587 36.1975 77.7293C31.9294 74.5282 16.9088 82.8182 16.006 77.0727L10.1783 40.5474C9.76794 38.1671 11.9841 35.1301 14.2002 34.8018L94.9663 21.9154C97.1824 21.587 100.137 23.7211 100.548 26.1014L109.412 81.587C109.741 83.9673 108.017 87.0863 105.39 87.4967Z" fill="white"/>
<path d="M91.2724 34.3091L37.1 42.9275C36.4434 43.0095 35.8689 42.5991 35.7868 41.9425C35.7047 41.2859 36.1151 40.7113 36.7717 40.6292L90.9441 32.0109C91.6007 31.9288 92.1753 32.3392 92.2574 32.9958C92.3394 33.5704 91.929 34.145 91.2724 34.3091Z" fill="#8DAAE7"/>
<path opacity="0.5" d="M69.8505 43.0916L37.6754 48.1805C37.1829 48.2626 36.6904 47.9343 36.6083 47.4418L36.5262 46.9493C36.4442 46.4569 36.7725 45.9644 37.265 45.8823L69.4401 40.7113C69.9325 40.6292 70.425 40.9575 70.5071 41.45L70.5892 41.9425C70.6712 42.517 70.3429 43.0095 69.8505 43.0916Z" fill="#8DAAE7"/>
<path d="M26.2653 52.285C29.6198 52.285 32.3391 49.5656 32.3391 46.2111C32.3391 42.8566 29.6198 40.1372 26.2653 40.1372C22.9108 40.1372 20.1914 42.8566 20.1914 46.2111C20.1914 49.5656 22.9108 52.285 26.2653 52.285Z" fill="#8DAAE7"/>
<g opacity="0.8">
<path opacity="0.8" d="M97.2643 81.341L30.1234 92.0934C28.646 92.3396 27.2507 91.3546 27.0044 89.8772L22.1617 59.3437C21.9155 57.8663 22.9004 56.4709 24.3779 56.2247L91.5188 45.4723C92.9962 45.226 94.3916 46.211 94.6378 47.6884L99.4805 78.2219C99.7267 79.7814 98.7418 81.0947 97.2643 81.341Z" fill="url(#paint1_linear)"/>
<path opacity="0.6" d="M29.8773 71.9838C32.3396 70.8347 34.4737 70.0139 32.9963 67.3053C31.4368 64.4325 33.1604 62.4626 34.2275 61.7239C36.9361 59.9182 39.3164 62.0522 40.7117 62.2985C40.958 62.2985 41.2042 62.3806 41.3684 62.2164C41.9429 61.9702 42.025 61.2315 42.1071 60.6569C42.4354 59.0974 43.6666 57.702 45.2261 57.2096C46.7856 56.7171 48.5093 57.1275 49.7405 58.2766C50.9717 59.3436 51.5462 61.0673 51.3 62.7089C51.2179 63.2014 51.0537 64.0222 51.5462 64.1863C52.5312 64.5146 53.1878 61.7239 54.9935 62.3806C58.605 63.6938 55.4039 65.8279 56.7993 66.4845C57.8663 66.977 59.0154 67.2232 60.2466 67.3053C57.4559 67.5516 39.973 70.3423 33.9812 71.081C33.6529 71.1631 29.7952 71.7376 29.8773 71.9838Z" fill="url(#paint2_linear)"/>
<path opacity="0.7" d="M96.4437 59.2614C94.9663 57.7019 92.5039 53.7621 87.1687 53.2696C83.5573 52.9413 78.8787 54.5008 76.4163 57.2095C74.8568 58.9331 74.0361 61.1493 73.2153 63.2833C71.8199 66.7307 70.2604 70.0959 68.4547 73.297C67.8801 74.364 67.2235 75.4311 66.1564 76.1698C64.1865 77.5651 61.4779 77.0727 59.1797 76.2519C54.9116 74.7744 50.233 72.6404 46.2112 74.5282C40.6298 77.0727 40.1373 85.1164 35.4588 89.0562C32.3397 91.6828 40.4656 90.9441 37.1824 93.4064C44.7337 92.1753 89.9594 84.2136 95.7871 82.9003C101.697 81.5049 98.5778 72.5583 97.1824 63.6937" fill="url(#paint3_linear)"/>
</g>
<path d="M38.4134 75.1848C34.0632 72.9686 26.4298 77.1547 21.5051 77.483C18.5502 77.7292 16.252 76.2518 16.1699 75.9235C17.1549 81.8332 40.7116 97.6745 46.9497 96.6896C43.7486 97.182 45.4722 78.7963 38.4134 75.1848Z" fill="white"/>
<path d="M38.4135 76.1699C34.2275 73.6255 26.0195 78.1398 21.1769 78.4682C18.222 78.7144 16.0879 77.4832 16.0059 77.1549C16.7446 82.1617 40.5476 97.8389 46.7856 96.8539C43.5845 97.3464 43.6666 79.289 38.4135 76.1699Z" fill="url(#paint4_linear)"/>
<path d="M26.2662 48.5912C27.7168 48.5912 28.8927 47.4153 28.8927 45.9647C28.8927 44.5141 27.7168 43.3381 26.2662 43.3381C24.8156 43.3381 23.6396 44.5141 23.6396 45.9647C23.6396 47.4153 24.8156 48.5912 26.2662 48.5912Z" fill="white"/>
<path d="M27.5892 54.4715C29.4693 54.1708 30.8077 52.7659 30.5787 51.3334C30.3496 49.9009 28.6398 48.9834 26.7597 49.284C24.8796 49.5847 23.5412 50.9896 23.7702 52.4221C23.9992 53.8545 25.7091 54.7721 27.5892 54.4715Z" fill="white"/>
<defs>
<filter id="filter0_d" x="8.14648" y="21.8818" width="103.308" height="79.054" filterUnits="userSpaceOnUse" color-interpolation-filters="sRGB">
<feFlood flood-opacity="0" result="BackgroundImageFix"/>
<feColorMatrix in="SourceAlpha" type="matrix" values="0 0 0 0 0 0 0 0 0 0 0 0 0 0 0 0 0 0 127 0"/>
<feOffset dy="2"/>
<feGaussianBlur stdDeviation="1"/>
<feColorMatrix type="matrix" values="0 0 0 0 0 0 0 0 0 0 0 0 0 0 0 0 0 0 0.15 0"/>
<feBlend mode="normal" in2="BackgroundImageFix" result="effect1_dropShadow"/>
<feBlend mode="normal" in="SourceGraphic" in2="effect1_dropShadow" result="shape"/>
</filter>
<linearGradient id="paint0_linear" x1="59.9579" y1="119.998" x2="59.9583" y2="-0.0821011" gradientUnits="userSpaceOnUse">
<stop offset="0.00584936" stop-color="#C9DCF7" stop-opacity="0.5"/>
<stop offset="1" stop-color="#8DAAE7"/>
</linearGradient>
<linearGradient id="paint1_linear" x1="62.6379" y1="89.2571" x2="59.0575" y2="48.3509" gradientUnits="userSpaceOnUse">
<stop offset="0.0643029" stop-color="#C9DCF7" stop-opacity="0"/>
<stop offset="0.0797059" stop-color="#C8DBF7" stop-opacity="0.0164615"/>
<stop offset="0.4606" stop-color="#A8C0EE" stop-opacity="0.4236"/>
<stop offset="0.781" stop-color="#94B0E9" stop-opacity="0.7659"/>
<stop offset="1" stop-color="#8DAAE7"/>
</linearGradient>
<linearGradient id="paint2_linear" x1="44.9781" y1="69.3987" x2="43.3045" y2="57.2884" gradientUnits="userSpaceOnUse">
<stop stop-color="white" stop-opacity="0.4"/>
<stop offset="1" stop-color="white"/>
</linearGradient>
<linearGradient id="paint3_linear" x1="71.7134" y1="91.6879" x2="60.7617" y2="61.6016" gradientUnits="userSpaceOnUse">
<stop offset="0.1345" stop-color="#C9DCF7" stop-opacity="0"/>
<stop offset="0.1488" stop-color="#C8DBF7" stop-opacity="0.01"/>
<stop offset="0.5011" stop-color="#A8C0EE" stop-opacity="0.2541"/>
<stop offset="0.7974" stop-color="#94B0E9" stop-opacity="0.4596"/>
<stop offset="1" stop-color="#8DAAE7" stop-opacity="0.6"/>
</linearGradient>
<linearGradient id="paint4_linear" x1="27.9465" y1="91.4146" x2="39.2797" y2="76.8761" gradientUnits="userSpaceOnUse">
<stop stop-color="#DCE3FB"/>
<stop offset="1" stop-color="#8DAAE7"/>
</linearGradient>
</defs>
</svg>
